<svg width="512" height="512" viewBox="0 0 512 512" fill="none" xmlns="http://www.w3.org/2000/svg">
<g clip-path="url(#clip0_1765_2048)">
<path fill-rule="evenodd" clip-rule="evenodd" d="M0 256C0 462.467 49.5315 512 256 512C462.467 512 512 462.467 512 256C512 49.5315 462.467 0 256 0C49.5315 0 0 49.5315 0 256ZM103.234 309.181L183.528 126.696C197.084 95.9347 223.152 79.2506 256 79.2506C288.848 79.2506 314.916 95.9347 328.474 126.696L408.765 309.181C412.416 318.045 415.542 329.514 415.542 339.421C415.542 384.781 383.738 416.586 338.378 416.586C322.928 416.586 310.656 412.643 298.236 408.653C285.509 404.563 272.624 400.422 256 400.422C239.568 400.422 226.369 404.602 213.39 408.707C200.836 412.678 188.49 416.586 173.621 416.586C128.26 416.586 96.456 384.781 96.456 339.421C96.456 329.514 99.5843 318.045 103.234 309.181ZM256 158.503L176.75 337.859C200.212 326.909 227.324 321.696 256 321.696C283.634 321.696 311.788 326.909 334.208 337.859L256 158.503Z" fill="#5A45FF"/>
<path d="M85 68H447V442H85V68Z" fill="#5A45FF"/>
<path d="M119.4 317.16C110.04 317.16 101.7 315.48 94.38 312.12C87.06 308.64 80.82 303.96 75.66 298.08C70.62 292.08 66.72 285.12 63.96 277.2C61.32 269.28 60 260.82 60 251.82C60 239.46 62.34 228.42 67.02 218.7C71.82 208.86 78.66 201.12 87.54 195.48C96.42 189.72 107.04 186.84 119.4 186.84C128.64 186.84 136.92 188.52 144.24 191.88C151.68 195.24 157.98 199.92 163.14 205.92C168.3 211.92 172.2 218.82 174.84 226.62C177.6 234.42 178.98 242.82 178.98 251.82C178.98 260.82 177.6 269.28 174.84 277.2C172.2 285.12 168.3 292.08 163.14 298.08C157.98 303.96 151.74 308.64 144.42 312.12C137.1 315.48 128.76 317.16 119.4 317.16ZM119.4 302.4C128.64 302.4 136.38 300.18 142.62 295.74C148.86 291.3 153.54 285.3 156.66 277.74C159.9 270.06 161.52 261.42 161.52 251.82C161.52 245.34 160.56 239.1 158.64 233.1C156.72 227.1 153.96 221.76 150.36 217.08C146.76 212.28 142.32 208.5 137.04 205.74C131.88 202.98 126 201.6 119.4 201.6C110.64 201.6 103.08 203.82 96.72 208.26C90.48 212.7 85.68 218.7 82.32 226.26C79.08 233.82 77.46 242.34 77.46 251.82C77.46 258.3 78.36 264.6 80.16 270.72C82.08 276.72 84.84 282.12 88.44 286.92C92.04 291.72 96.42 295.5 101.58 298.26C106.86 301.02 112.8 302.4 119.4 302.4ZM237.254 316.44C230.414 316.44 224.414 316.26 219.254 315.9C214.214 315.54 209.174 315.12 204.134 314.64V189.36C209.774 188.76 215.294 188.34 220.694 188.1C226.094 187.74 232.274 187.56 239.234 187.56C250.034 187.56 259.334 189.24 267.134 192.6C275.054 195.96 281.534 200.58 286.574 206.46C291.734 212.34 295.514 219.18 297.914 226.98C300.434 234.66 301.694 242.94 301.694 251.82C301.694 260.58 300.434 268.86 297.914 276.66C295.394 284.46 291.494 291.36 286.214 297.36C281.054 303.24 274.394 307.92 266.234 311.4C258.194 314.76 248.534 316.44 237.254 316.44ZM237.794 301.5C248.594 301.5 257.414 299.4 264.254 295.2C271.094 291 276.134 285.18 279.374 277.74C282.614 270.18 284.234 261.54 284.234 251.82C284.234 243.18 282.614 235.08 279.374 227.52C276.134 219.96 271.154 213.9 264.434 209.34C257.714 204.66 249.134 202.32 238.694 202.32C235.214 202.32 232.034 202.44 229.154 202.68C226.274 202.8 223.634 202.98 221.234 203.22V300.6C223.754 300.96 226.394 301.2 229.154 301.32C231.914 301.44 234.794 301.5 237.794 301.5ZM326.829 315V189H350.769L385.689 268.74L420.069 189H444.549V315H427.449V210.78L393.789 286.56H376.869L343.029 210.78V315H326.829Z" fill="white"/>
</g>
<defs>
<clipPath id="clip0_1765_2048">
<rect width="512" height="512" fill="white"/>
</clipPath>
</defs>
</svg>
